<?xml version="1.0" encoding="UTF-8" standalone="no"?>
<!-- Created with Inkscape (http://www.inkscape.org/) -->

<svg
   width="70mm"
   height="70mm"
   viewBox="0 0 70 70"
   version="1.1"
   id="svg5"
   inkscape:version="1.1.1 (3bf5ae0d25, 2021-09-20)"
   sodipodi:docname="mark.svg"
   xmlns:inkscape="http://www.inkscape.org/namespaces/inkscape"
   xmlns:sodipodi="http://sodipodi.sourceforge.net/DTD/sodipodi-0.dtd"
   xmlns="http://www.w3.org/2000/svg"
   xmlns:svg="http://www.w3.org/2000/svg">
  <sodipodi:namedview
     id="namedview7"
     pagecolor="#505050"
     bordercolor="#eeeeee"
     borderopacity="1"
     inkscape:pageshadow="0"
     inkscape:pageopacity="0"
     inkscape:pagecheckerboard="0"
     inkscape:document-units="mm"
     showgrid="false"
     inkscape:zoom="2.1417558"
     inkscape:cx="200.5364"
     inkscape:cy="128.63278"
     inkscape:window-width="1920"
     inkscape:window-height="1009"
     inkscape:window-x="-12"
     inkscape:window-y="-12"
     inkscape:window-maximized="1"
     inkscape:current-layer="layer1"
     viewbox-width="70" />
  <defs
     id="defs2" />
  <g
     inkscape:label="Layer 1"
     inkscape:groupmode="layer"
     id="layer1">
    <path
       style="fill:#000000;stroke-width:1.59;stroke-miterlimit:4;stroke-dasharray:none;stroke:#000000;stroke-opacity:1;fill-opacity:1"
       id="path1262"
       d="M 38.672599,7.1367287 C 35.860956,5.8511132 32.636484,6.2980535 29.743658,7.0374018 28.106425,7.455846 26.470665,7.9254212 24.91132,8.5965761 c -1.830263,0.7877596 -3.533884,1.8681469 -5.300829,2.8022219 -2.246915,1.820798 -4.772239,3.314541 -6.740753,5.462395 -1.572621,1.71589 -2.795288,3.80452 -3.7384291,5.971479 -2.1132708,4.855449 -2.6392329,9.876726 -1.9970744,15.145693 0.8858112,7.268113 2.4720416,9.063712 5.6473945,15.465329 1.71247,2.165186 3.224984,4.524157 5.1374,6.495558 4.853353,5.003026 11.891327,9.518595 18.969734,9.249749 6.054602,-0.229961 8.302812,-2.982073 13.385339,-6.42919 1.540198,-1.895957 3.278653,-3.632006 4.620603,-5.687879 5.692822,-8.721427 8.435921,-20.58424 7.978565,-31.082549 C 62.764239,23.486782 62.264449,21.020012 61.960046,18.535328 61.329217,16.376961 60.906671,14.138672 60.067551,12.06023 57.869003,6.6145938 54.164973,2.0888595 48.499246,0.6263591 43.42162,-0.68433623 40.242366,0.35305305 35.124066,1.1030432 32.556022,2.0430319 29.896402,2.7421039 27.419941,3.923006 24.799567,5.1725353 22.26141,6.6479096 19.893048,8.3659734 14.124394,12.550681 10.181961,16.003385 6.8583767,22.455511 3.2808727,29.40056 3.9318638,31.187359 3.4381534,38.78934 3.983797,41.491011 4.2110017,44.286182 5.075084,46.894344 8.5747235,57.457749 17.189429,65.693246 27.380996,68.719952 29.893494,69.466117 32.53907,69.573317 35.118103,70 c 2.539724,-0.142187 5.105419,-0.01982 7.619157,-0.426577 2.373262,-0.383998 4.719112,-1.039941 6.965057,-1.933169 4.429722,-1.761737 9.478772,-5.34482 12.756146,-8.778024 3.656974,-3.830847 4.374206,-6.862455 6.346589,-11.695623 0.377631,-2.176685 0.988553,-4.322649 1.132883,-6.530063 C 70.360659,34.171169 68.618684,27.666461 64.874632,22.491958 61.542812,17.887183 59.600106,17.138576 55.054398,13.99628 52.852111,13.0946 50.719012,11.977343 48.447553,11.291243 43.416006,9.7714474 37.976894,9.2405064 32.769516,9.2015358 28.048637,9.1662072 22.058601,9.6804919 17.403528,10.756721 c -2.068123,0.478138 -4.053448,1.290101 -6.080176,1.935154 -3.8976729,2.321544 -6.7667546,3.541242 -9.6013589,7.624631 -0.89392236,1.287743 -1.25202636,2.940326 -1.51210329,4.511077 -0.56173453,3.392644 0.13430354,6.832316 0.56798479,10.163458 0,0 2.079964,-1.152215 2.079964,-1.152215 v 0 C 2.4024908,30.325814 1.742008,27.334697 2.3813049,23.761416 2.65693,22.220849 3.3613044,20.799337 3.913997,19.343483 c 0.3135377,-0.825881 0.4281056,-1.835584 1.0639207,-2.42184 1.3604448,-1.254415 3.1242192,-1.920148 4.6863248,-2.880221 2.0624695,-0.686695 4.0797135,-1.5473 6.1874085,-2.060086 4.714877,-1.147088 10.624466,-1.691551 15.427056,-1.655478 5.150187,0.03869 10.541561,0.602312 15.508404,2.136787 2.240664,0.692241 4.341643,1.811037 6.512469,2.716553 4.49611,3.12901 6.415474,3.87795 9.711917,8.444852 3.701385,5.127899 5.446385,11.581702 5.021793,17.987691 -0.145168,2.19028 -0.758689,4.318098 -1.138041,6.477143 -2.670274,6.463476 -2.010396,6.125196 -6.365789,11.595142 -0.970299,1.218606 -1.954602,2.477662 -3.200223,3.377806 -3.763252,2.719515 -8.577102,4.561321 -13.054601,5.322931 -2.511792,0.427254 -5.079813,0.319034 -7.619723,0.47855 -6.802426,-1.091335 -8.82195,-0.762067 -14.96825,-4.369656 C 14.805395,60.454689 9.3254477,53.816153 6.7262988,45.963349 5.8686684,43.37219 5.6459458,40.594969 5.1057694,37.910775 5.2846779,35.156535 5.0787054,32.344279 5.642495,29.648048 6.9222832,23.528004 9.5857727,19.226902 13.436637,14.550343 c 1.522813,-1.849337 3.197509,-3.597872 5.088747,-5.0222784 5.751571,-4.3318521 8.51543,-4.8078112 15.009241,-7.1754162 5.06988,-0.7193012 8.066666,-1.70324665 13.078998,-0.4079191 5.583286,1.4428764 9.348648,5.8263285 11.614027,11.1772097 0.865827,2.045096 1.315172,4.258293 1.972763,6.387439 0.323727,2.461715 0.849441,4.903303 0.971182,7.385148 0.515959,10.518697 -2.312721,22.323216 -8.105617,30.990378 -1.37286,2.054022 -3.144645,3.778515 -4.716971,5.667776 -1.228034,0.933948 -2.289938,2.176979 -3.684116,2.801842 -1.918309,0.859775 -3.992054,1.459349 -6.074562,1.571949 C 31.475529,68.31117 24.413957,63.957825 19.503677,58.938775 17.592649,56.985421 16.09079,54.63339 14.384346,52.48069 13.161098,49.985322 11.657028,47.621271 10.7146,44.994579 8.0681326,37.618482 7.743955,29.217459 10.997538,21.974045 c 2.020082,-4.497283 3.857658,-5.98034 6.90692,-9.139205 1.722162,-0.914358 3.379945,-1.977441 5.166495,-2.743078 1.503651,-0.6443969 3.084841,-1.0826363 4.666069,-1.4707177 2.712135,-0.6656419 5.784692,-1.0620621 8.382468,0.2429147 0,0 2.553109,-1.7272303 2.553109,-1.7272303 z" />
  </g>
</svg>
